<mxfile host="app.diagrams.net" modified="2022-06-03T19:40:21.816Z" agent="5.0 (Windows)" etag="wdMBgDGrWDeP7gRbLzPv" version="19.0.0" type="gitlab">
  <diagram id="uxtKMf21eRbsi_KwySVA" name="Page-1">
    <mxGraphModel dx="569" dy="305" grid="1" gridSize="5" guides="1" tooltips="1" connect="1" arrows="1" fold="1" page="1" pageScale="1" pageWidth="827" pageHeight="1169" math="0" shadow="0">
      <root>
        <mxCell id="0" />
        <mxCell id="1" parent="0" />
        <mxCell id="Do-2jzCsswZucwtNu8jR-17" style="edgeStyle=orthogonalEdgeStyle;rounded=0;orthogonalLoop=1;jettySize=auto;html=1;entryX=0.5;entryY=0;entryDx=0;entryDy=0;fontSize=7;" edge="1" parent="1" source="Do-2jzCsswZucwtNu8jR-1" target="Do-2jzCsswZucwtNu8jR-3">
          <mxGeometry relative="1" as="geometry">
            <Array as="points">
              <mxPoint x="290" y="40" />
            </Array>
          </mxGeometry>
        </mxCell>
        <mxCell id="Do-2jzCsswZucwtNu8jR-24" style="edgeStyle=orthogonalEdgeStyle;rounded=0;orthogonalLoop=1;jettySize=auto;html=1;fontSize=5;" edge="1" parent="1" source="Do-2jzCsswZucwtNu8jR-1" target="Do-2jzCsswZucwtNu8jR-9">
          <mxGeometry relative="1" as="geometry" />
        </mxCell>
        <mxCell id="Do-2jzCsswZucwtNu8jR-28" style="edgeStyle=orthogonalEdgeStyle;rounded=0;orthogonalLoop=1;jettySize=auto;html=1;fontSize=5;" edge="1" parent="1" source="Do-2jzCsswZucwtNu8jR-1" target="Do-2jzCsswZucwtNu8jR-14">
          <mxGeometry relative="1" as="geometry">
            <Array as="points">
              <mxPoint x="325" y="65" />
              <mxPoint x="415" y="65" />
            </Array>
          </mxGeometry>
        </mxCell>
        <mxCell id="Do-2jzCsswZucwtNu8jR-1" value="&lt;font style=&quot;font-size: 6px;&quot;&gt;INIT&lt;/font&gt;" style="rounded=1;whiteSpace=wrap;html=1;" vertex="1" parent="1">
          <mxGeometry x="310" y="30" width="30" height="20" as="geometry" />
        </mxCell>
        <mxCell id="Do-2jzCsswZucwtNu8jR-19" style="edgeStyle=orthogonalEdgeStyle;rounded=0;orthogonalLoop=1;jettySize=auto;html=1;fontSize=5;" edge="1" parent="1" source="Do-2jzCsswZucwtNu8jR-3" target="Do-2jzCsswZucwtNu8jR-7">
          <mxGeometry relative="1" as="geometry" />
        </mxCell>
        <mxCell id="Do-2jzCsswZucwtNu8jR-3" value="&lt;font style=&quot;font-size: 6px;&quot;&gt;get charger location&lt;br&gt;&lt;/font&gt;" style="ellipse;whiteSpace=wrap;html=1;fontSize=7;" vertex="1" parent="1">
          <mxGeometry x="270" y="70" width="40" height="25" as="geometry" />
        </mxCell>
        <mxCell id="Do-2jzCsswZucwtNu8jR-23" style="edgeStyle=orthogonalEdgeStyle;rounded=0;orthogonalLoop=1;jettySize=auto;html=1;entryX=0.328;entryY=-0.008;entryDx=0;entryDy=0;fontSize=5;entryPerimeter=0;" edge="1" parent="1" source="Do-2jzCsswZucwtNu8jR-4" target="Do-2jzCsswZucwtNu8jR-1">
          <mxGeometry relative="1" as="geometry">
            <Array as="points">
              <mxPoint x="215" y="283" />
              <mxPoint x="215" y="10" />
              <mxPoint x="320" y="10" />
              <mxPoint x="320" y="30" />
            </Array>
          </mxGeometry>
        </mxCell>
        <mxCell id="Do-2jzCsswZucwtNu8jR-4" value="&lt;font style=&quot;font-size: 5px;&quot;&gt;plug out&lt;/font&gt;" style="ellipse;whiteSpace=wrap;html=1;fontSize=7;" vertex="1" parent="1">
          <mxGeometry x="255" y="270" width="40" height="25" as="geometry" />
        </mxCell>
        <mxCell id="Do-2jzCsswZucwtNu8jR-22" style="edgeStyle=orthogonalEdgeStyle;rounded=0;orthogonalLoop=1;jettySize=auto;html=1;entryX=0.5;entryY=0;entryDx=0;entryDy=0;fontSize=5;" edge="1" parent="1" source="Do-2jzCsswZucwtNu8jR-5" target="Do-2jzCsswZucwtNu8jR-4">
          <mxGeometry relative="1" as="geometry" />
        </mxCell>
        <mxCell id="Do-2jzCsswZucwtNu8jR-5" value="&lt;font style=&quot;font-size: 5px;&quot;&gt;plug in&lt;/font&gt;" style="ellipse;whiteSpace=wrap;html=1;fontSize=7;" vertex="1" parent="1">
          <mxGeometry x="255" y="225" width="40" height="25" as="geometry" />
        </mxCell>
        <mxCell id="Do-2jzCsswZucwtNu8jR-21" style="edgeStyle=orthogonalEdgeStyle;rounded=0;orthogonalLoop=1;jettySize=auto;html=1;fontSize=5;" edge="1" parent="1" source="Do-2jzCsswZucwtNu8jR-6" target="Do-2jzCsswZucwtNu8jR-5">
          <mxGeometry relative="1" as="geometry" />
        </mxCell>
        <mxCell id="Do-2jzCsswZucwtNu8jR-6" value="&lt;font style=&quot;font-size: 6px;&quot;&gt;go to point operation **&lt;/font&gt;" style="ellipse;whiteSpace=wrap;html=1;fontSize=7;" vertex="1" parent="1">
          <mxGeometry x="255" y="170" width="40" height="25" as="geometry" />
        </mxCell>
        <mxCell id="Do-2jzCsswZucwtNu8jR-20" style="edgeStyle=orthogonalEdgeStyle;rounded=0;orthogonalLoop=1;jettySize=auto;html=1;fontSize=5;" edge="1" parent="1" source="Do-2jzCsswZucwtNu8jR-7" target="Do-2jzCsswZucwtNu8jR-6">
          <mxGeometry relative="1" as="geometry">
            <Array as="points">
              <mxPoint x="275" y="160" />
              <mxPoint x="275" y="160" />
            </Array>
          </mxGeometry>
        </mxCell>
        <mxCell id="Do-2jzCsswZucwtNu8jR-7" value="&lt;font style=&quot;font-size: 5px;&quot;&gt;go to charger&lt;/font&gt;" style="ellipse;whiteSpace=wrap;html=1;fontSize=7;" vertex="1" parent="1">
          <mxGeometry x="255" y="125" width="40" height="25" as="geometry" />
        </mxCell>
        <mxCell id="Do-2jzCsswZucwtNu8jR-26" style="edgeStyle=orthogonalEdgeStyle;rounded=0;orthogonalLoop=1;jettySize=auto;html=1;entryX=0.75;entryY=0;entryDx=0;entryDy=0;fontSize=5;" edge="1" parent="1" source="Do-2jzCsswZucwtNu8jR-8" target="Do-2jzCsswZucwtNu8jR-1">
          <mxGeometry relative="1" as="geometry">
            <Array as="points">
              <mxPoint x="460" y="10" />
              <mxPoint x="333" y="10" />
            </Array>
          </mxGeometry>
        </mxCell>
        <mxCell id="Do-2jzCsswZucwtNu8jR-8" value="&lt;font style=&quot;font-size: 6px;&quot;&gt;save x,y,z,r,p,y&lt;/font&gt;" style="ellipse;whiteSpace=wrap;html=1;fontSize=7;" vertex="1" parent="1">
          <mxGeometry x="440" y="27.5" width="40" height="25" as="geometry" />
        </mxCell>
        <mxCell id="Do-2jzCsswZucwtNu8jR-25" style="edgeStyle=orthogonalEdgeStyle;rounded=0;orthogonalLoop=1;jettySize=auto;html=1;entryX=0;entryY=0.5;entryDx=0;entryDy=0;fontSize=5;" edge="1" parent="1" source="Do-2jzCsswZucwtNu8jR-9" target="Do-2jzCsswZucwtNu8jR-8">
          <mxGeometry relative="1" as="geometry">
            <Array as="points">
              <mxPoint x="425" y="40" />
              <mxPoint x="425" y="40" />
            </Array>
          </mxGeometry>
        </mxCell>
        <mxCell id="Do-2jzCsswZucwtNu8jR-9" value="&lt;font style=&quot;font-size: 6px;&quot;&gt;manual movement&lt;/font&gt;" style="ellipse;whiteSpace=wrap;html=1;fontSize=7;" vertex="1" parent="1">
          <mxGeometry x="370" y="27.5" width="40" height="25" as="geometry" />
        </mxCell>
        <mxCell id="Do-2jzCsswZucwtNu8jR-33" style="edgeStyle=orthogonalEdgeStyle;rounded=0;orthogonalLoop=1;jettySize=auto;html=1;entryX=0;entryY=0.5;entryDx=0;entryDy=0;fontSize=5;" edge="1" parent="1" source="Do-2jzCsswZucwtNu8jR-10" target="Do-2jzCsswZucwtNu8jR-14">
          <mxGeometry relative="1" as="geometry">
            <Array as="points">
              <mxPoint x="360" y="98" />
            </Array>
          </mxGeometry>
        </mxCell>
        <mxCell id="Do-2jzCsswZucwtNu8jR-10" value="&lt;font style=&quot;font-size: 6px;&quot;&gt;get next room&lt;/font&gt;" style="ellipse;whiteSpace=wrap;html=1;fontSize=7;" vertex="1" parent="1">
          <mxGeometry x="340" y="190" width="40" height="25" as="geometry" />
        </mxCell>
        <mxCell id="Do-2jzCsswZucwtNu8jR-32" style="edgeStyle=orthogonalEdgeStyle;rounded=0;orthogonalLoop=1;jettySize=auto;html=1;fontSize=5;" edge="1" parent="1" source="Do-2jzCsswZucwtNu8jR-11" target="Do-2jzCsswZucwtNu8jR-10">
          <mxGeometry relative="1" as="geometry">
            <Array as="points">
              <mxPoint x="415" y="260" />
              <mxPoint x="360" y="260" />
            </Array>
          </mxGeometry>
        </mxCell>
        <mxCell id="Do-2jzCsswZucwtNu8jR-11" value="&lt;font style=&quot;font-size: 6px;&quot;&gt;save room as cleaned&lt;/font&gt;" style="ellipse;whiteSpace=wrap;html=1;fontSize=7;" vertex="1" parent="1">
          <mxGeometry x="395" y="220" width="40" height="25" as="geometry" />
        </mxCell>
        <mxCell id="Do-2jzCsswZucwtNu8jR-31" style="edgeStyle=orthogonalEdgeStyle;rounded=0;orthogonalLoop=1;jettySize=auto;html=1;entryX=0.5;entryY=0;entryDx=0;entryDy=0;fontSize=5;" edge="1" parent="1" source="Do-2jzCsswZucwtNu8jR-12" target="Do-2jzCsswZucwtNu8jR-11">
          <mxGeometry relative="1" as="geometry" />
        </mxCell>
        <mxCell id="Do-2jzCsswZucwtNu8jR-12" value="&lt;font style=&quot;font-size: 6px;&quot;&gt;room clean operation **&lt;/font&gt;" style="ellipse;whiteSpace=wrap;html=1;fontSize=7;" vertex="1" parent="1">
          <mxGeometry x="395" y="170" width="40" height="25" as="geometry" />
        </mxCell>
        <mxCell id="Do-2jzCsswZucwtNu8jR-30" style="edgeStyle=orthogonalEdgeStyle;rounded=0;orthogonalLoop=1;jettySize=auto;html=1;entryX=0.5;entryY=0;entryDx=0;entryDy=0;fontSize=5;" edge="1" parent="1" source="Do-2jzCsswZucwtNu8jR-13" target="Do-2jzCsswZucwtNu8jR-12">
          <mxGeometry relative="1" as="geometry" />
        </mxCell>
        <mxCell id="Do-2jzCsswZucwtNu8jR-13" value="&lt;font style=&quot;font-size: 6px;&quot;&gt;go to point operation **&lt;/font&gt;" style="ellipse;whiteSpace=wrap;html=1;fontSize=7;" vertex="1" parent="1">
          <mxGeometry x="395" y="130" width="40" height="25" as="geometry" />
        </mxCell>
        <mxCell id="Do-2jzCsswZucwtNu8jR-29" style="edgeStyle=orthogonalEdgeStyle;rounded=0;orthogonalLoop=1;jettySize=auto;html=1;fontSize=5;" edge="1" parent="1" source="Do-2jzCsswZucwtNu8jR-14" target="Do-2jzCsswZucwtNu8jR-13">
          <mxGeometry relative="1" as="geometry" />
        </mxCell>
        <mxCell id="Do-2jzCsswZucwtNu8jR-14" value="&lt;font style=&quot;font-size: 5px;&quot;&gt;go to room&lt;/font&gt;" style="ellipse;whiteSpace=wrap;html=1;fontSize=7;" vertex="1" parent="1">
          <mxGeometry x="395" y="85" width="40" height="25" as="geometry" />
        </mxCell>
        <mxCell id="Do-2jzCsswZucwtNu8jR-18" value="&lt;font style=&quot;font-size: 5px;&quot;&gt;need charging&lt;/font&gt;" style="text;html=1;strokeColor=none;fillColor=none;align=center;verticalAlign=middle;whiteSpace=wrap;rounded=0;fontSize=7;" vertex="1" parent="1">
          <mxGeometry x="260" y="40" width="30" height="15" as="geometry" />
        </mxCell>
      </root>
    </mxGraphModel>
  </diagram>
</mxfile>
